<svg width="85" height="71" viewBox="0 0 85 71" fill="none" xmlns="http://www.w3.org/2000/svg">
<path fill-rule="evenodd" clip-rule="evenodd" d="M74.375 71.0469H79.6875V33.4532C79.6875 15.35 63.0381 0.682861 42.5 0.682861C22.0044 0.682861 5.3125 15.3547 5.3125 33.4532V71.0469H10.625V33.4532C10.625 17.9563 24.9209 5.37036 42.5 5.37036C60.1056 5.37036 74.375 17.9422 74.375 33.4532V71.0469ZM18.4875 8.45005C16.5431 6.56567 13.7381 5.37974 10.625 5.37974C4.75469 5.37974 0 9.57505 0 14.7547C0 18.8235 2.9325 22.2829 7.03906 23.5813C7.58094 22.0766 8.23969 20.6235 9.01 19.2219C6.86906 18.6172 5.31781 16.8454 5.31781 14.7547C5.31781 12.1672 7.69781 10.0672 10.6303 10.0672C12.2559 10.0672 13.7116 10.7141 14.6891 11.7266C15.8684 10.5547 17.1381 9.46255 18.4981 8.45005H18.4875ZM66.5231 8.44067C68.4675 6.56099 71.2672 5.37974 74.3803 5.37974C80.2506 5.37974 85.0053 9.57505 85.0053 14.7547C85.0053 18.8188 82.0728 22.2829 77.9716 23.5813C77.435 22.0766 76.7763 20.6188 76.0059 19.2172C78.1469 18.6125 79.6928 16.8407 79.6928 14.7547C79.6928 12.1672 77.3128 10.0672 74.3803 10.0672C72.76 10.0672 71.3044 10.7094 70.3322 11.7219C69.1528 10.55 67.8831 9.45786 66.5231 8.44536" fill="#FEB62A"/>
<path fill-rule="evenodd" clip-rule="evenodd" d="M30.4194 33.6875H38.6909V34.2688C38.6909 35.5953 38.5156 36.7719 38.1597 37.7937C37.8144 38.7406 37.23 39.6266 36.4066 40.4469C34.5472 42.2938 32.1831 43.2172 29.3144 43.2172C26.5147 43.2172 24.1134 42.3266 22.1159 40.5406C20.1184 38.75 19.1197 36.5984 19.1197 34.0859C19.1197 31.5219 20.1344 29.3516 22.1691 27.5656C24.1984 25.775 26.6741 24.875 29.5853 24.875C31.1525 24.875 32.6134 25.1563 33.9681 25.7234C35.2644 26.2859 36.5394 27.2047 37.7931 28.4703L35.6416 30.2891C34 28.3578 31.9972 27.3922 29.6384 27.3922C27.5188 27.3922 25.7444 28.0391 24.3259 29.3281C22.8916 30.5938 22.1744 32.1828 22.1744 34.0859C22.1744 36.0547 22.9766 37.6766 24.5756 38.9469C26.0738 40.1281 27.6941 40.7188 29.4366 40.7188C30.9241 40.7188 32.2575 40.2781 33.4422 39.3922C34.6269 38.5016 35.2856 37.4328 35.4238 36.1906H30.43V33.6828L30.4194 33.6875ZM45.7513 33.9688C45.7513 31.4844 46.7819 29.3469 48.8484 27.5609C50.9044 25.775 53.38 24.8844 56.2647 24.8844C59.1175 24.8844 61.5666 25.7844 63.6066 27.5844C65.6572 29.3844 66.6772 31.5453 66.6772 34.0719C66.6772 36.6125 65.6466 38.7594 63.5906 40.5359C61.5241 42.3125 59.0325 43.2031 56.1106 43.2031C53.5234 43.2031 51.2072 42.4156 49.1459 40.8359C46.8828 39.0875 45.7459 36.8 45.7459 33.9688H45.7513ZM48.7953 34.0016C48.7953 35.9563 49.5391 37.5594 51.0266 38.8203C52.5034 40.0813 54.2141 40.7094 56.1478 40.7094C58.2463 40.7094 60.0206 40.0672 61.4603 38.7875C62.9053 37.4891 63.6278 35.9141 63.6278 34.0531C63.6278 32.1688 62.9159 30.5891 61.4869 29.3187C60.0684 28.0391 58.3153 27.3969 56.2222 27.3969C54.1397 27.3969 52.3813 28.0391 50.9469 29.3187C49.5125 30.5844 48.7953 32.15 48.7953 34.0062V34.0016ZM47.8178 52.3719C50.6069 52.4938 52.1316 52.6672 52.1316 52.6672C53.5712 52.7844 53.8528 52.2172 52.7478 51.3875C52.7478 51.3875 48.6306 47.5766 42.4788 47.5766C36.3216 47.5766 32.2628 51.3875 32.2628 51.3875C31.1419 52.2031 31.45 52.7937 32.9003 52.6672C32.9003 52.6672 34.4197 52.4938 37.2034 52.3719V54.6078C37.2034 55.8641 38.3934 56.9516 39.8597 56.9516C41.2834 56.9516 42.5159 55.9063 42.5159 54.6172V53.4359V54.6078C42.5159 55.8641 43.7059 56.9516 45.1722 56.9516C46.5959 56.9516 47.8284 55.9063 47.8284 54.6172V52.3766L47.8178 52.3719ZM42.5159 47.5812C45.4484 47.5812 47.8284 46.5312 47.8284 45.2375C47.8284 43.9437 45.4484 42.8937 42.5159 42.8937C39.5834 42.8937 37.2034 43.9437 37.2034 45.2375C37.2034 46.5312 39.5834 47.5812 42.5159 47.5812Z" fill="#FEB62A"/>
</svg>
