<svg width="96" height="86" viewBox="0 0 96 86" fill="none" xmlns="http://www.w3.org/2000/svg">
<path d="M95.3601 36.2633C95.2001 35.69 94.7201 35.26 94.08 35.1166C93.4401 34.9733 92.7999 35.2598 92.4801 35.6898C90.4001 38.4131 86.88 40.1331 83.2001 40.1331C79.2002 40.1331 75.3602 38.2698 73.4402 35.1164C73.1201 34.6864 72.4802 34.3997 71.8403 34.3997C71.3603 34.3997 70.8802 34.3997 70.4002 34.3997C62.4002 34.3997 56.0003 28.6664 56.0003 21.4997C56.0003 20.2454 56.1878 19.0473 56.5628 17.9051C56.8102 17.1997 57.0802 16.5547 57.4402 15.9097C57.6002 15.6229 57.6002 15.1929 57.4402 14.7629C57.2803 14.3329 56.9603 14.0462 56.4802 13.9029C53.2802 12.8997 51.2002 10.1762 51.2002 7.16622C51.2002 6.944 51.2113 6.72429 51.2325 6.50677C51.2552 6.35543 51.2931 6.20023 51.3604 6.0195C51.3604 5.92006 51.36 5.82062 51.3561 5.72286C51.6084 4.55447 52.1614 3.45864 52.9603 2.43605C53.4403 2.00605 53.4403 1.43277 53.2804 1.00277C53.1204 0.572773 52.6404 0.142773 52.0003 0.142773C50.5599 0 49.2801 0 48 0C21.6 0 0 19.35 0 43C0 66.65 21.6 86 48 86C74.4 86 96 66.65 96 43C96 40.7067 95.6799 38.5567 95.3601 36.2633ZM53.3567 17.5353C52.4062 18.0919 51.1547 18.6333 49.5999 18.6333C46.08 18.6333 43.2 16.0533 43.2 12.9C43.2 10.1767 45.2799 7.88328 48 7.31C48 11.0367 50.4 14.3333 53.9199 16.0533C53.6951 16.537 53.5093 17.0322 53.3567 17.5353ZM48 83.1333C23.3601 83.1333 3.20006 65.0733 3.20006 43C3.20006 20.9267 23.3601 2.86672 48 2.86672C48.3201 2.86672 48.6399 2.86672 49.1199 2.86672C48.8291 3.33569 48.6024 3.84262 48.4309 4.36652C43.6973 4.88755 39.9999 8.52458 39.9999 12.9C39.9999 17.63 44.3199 21.5 49.5999 21.5C50.6882 21.5 51.7759 21.3293 52.809 20.9911C52.8036 21.1607 52.8 21.3302 52.8 21.5C52.8 30.2433 60.6399 37.2667 70.4001 37.2667C70.7201 37.2667 70.8801 37.2667 71.2001 37.2667C73.9202 40.85 78.4001 43 83.2001 43C86.7201 43 90.0801 41.8533 92.6402 39.8467C92.8001 40.85 92.8001 41.9967 92.8001 43C92.7999 65.0733 72.6399 83.1333 48 83.1333Z" fill="#F7654A"/>
<path d="M27.2001 22.9332C21.9201 22.9332 17.6001 26.8032 17.6001 31.5332C17.6001 36.2632 21.9201 40.1332 27.2001 40.1332C32.4801 40.1332 36.8001 36.2632 36.8001 31.5332C36.8001 26.8032 32.4801 22.9332 27.2001 22.9332ZM27.2001 37.2667C23.6801 37.2667 20.8001 34.6867 20.8001 31.5334C20.8001 28.3801 23.6801 25.8001 27.2001 25.8001C30.72 25.8001 33.6 28.3801 33.6 31.5334C33.6 34.6867 30.72 37.2667 27.2001 37.2667Z" fill="#F7654A"/>
<path d="M28.8 54.4667C24.3201 54.4667 20.7999 57.62 20.7999 61.6334C20.7999 65.6468 24.3201 68.8 28.8 68.8C33.2799 68.8 36.8001 65.6467 36.8001 61.6332C36.8001 57.6198 33.2799 54.4667 28.8 54.4667ZM28.8 65.9332C26.0799 65.9332 24 64.07 24 61.6332C24 59.1965 26.0799 57.3332 28.8 57.3332C31.5201 57.3332 33.6 59.1965 33.6 61.6332C33.6 64.07 31.5201 65.9332 28.8 65.9332Z" fill="#F7654A"/>
<path d="M60.8001 50.1667C53.76 50.1667 48 55.3267 48 61.6335C48 67.9402 53.76 73.1002 60.8001 73.1002C67.8401 73.1002 73.6001 67.9402 73.6001 61.6335C73.6001 55.3267 67.8399 50.1667 60.8001 50.1667ZM60.8001 70.2333C55.5201 70.2333 51.2001 66.3633 51.2001 61.6333C51.2001 56.9033 55.5201 53.0333 60.8001 53.0333C66.0801 53.0333 70.4001 56.9033 70.4001 61.6333C70.4001 66.3633 66.0801 70.2333 60.8001 70.2333Z" fill="#F7654A"/>
</svg>
